<?xml version="1.0" encoding="UTF-8" standalone="no"?>
<svg
   width="140"
   height="40"
   viewBox="0 0 37.041666 10.583335"
   version="1.1"
   id="svg1787"
   inkscape:version="1.1 (c68e22c387, 2021-05-23)"
   sodipodi:docname="ego.svg"
   xmlns:inkscape="http://www.inkscape.org/namespaces/inkscape"
   xmlns:sodipodi="http://sodipodi.sourceforge.net/DTD/sodipodi-0.dtd"
   xmlns="http://www.w3.org/2000/svg"
   xmlns:svg="http://www.w3.org/2000/svg"
   xmlns:rdf="http://www.w3.org/1999/02/22-rdf-syntax-ns#"
   xmlns:cc="http://creativecommons.org/ns#"
   xmlns:dc="http://purl.org/dc/elements/1.1/">
  <title
     id="title2446">Download From EGO Logo</title>
  <defs
     id="defs1781" />
  <sodipodi:namedview
     id="base"
     pagecolor="#ffffff"
     bordercolor="#666666"
     borderopacity="1.0"
     inkscape:pageopacity="0.0"
     inkscape:pageshadow="2"
     inkscape:zoom="1"
     inkscape:cx="69"
     inkscape:cy="-38"
     inkscape:document-units="px"
     inkscape:current-layer="g51711"
     inkscape:document-rotation="0"
     showgrid="false"
     inkscape:window-width="1920"
     inkscape:window-height="1048"
     inkscape:window-x="0"
     inkscape:window-y="0"
     inkscape:window-maximized="1"
     units="px"
     inkscape:snap-global="false"
     inkscape:pagecheckerboard="0"
     showguides="true"
     inkscape:guide-bbox="true" />
  <metadata
     id="metadata1784">
    <rdf:RDF>
      <cc:Work
         rdf:about="">
        <dc:format>image/svg+xml</dc:format>
        <dc:type
           rdf:resource="http://purl.org/dc/dcmitype/StillImage" />
        <dc:title>Download From EGO Logo</dc:title>
        <dc:date>2021</dc:date>
        <dc:publisher>
          <cc:Agent>
            <dc:title>Javad Rahmatzadeh</dc:title>
          </cc:Agent>
        </dc:publisher>
        <dc:creator>
          <cc:Agent>
            <dc:title>Javad Rahmatzadeh</dc:title>
          </cc:Agent>
        </dc:creator>
        <cc:license
           rdf:resource="https://www.gnu.org/licenses/gpl-3.0.html" />
      </cc:Work>
    </rdf:RDF>
  </metadata>
  <g
     inkscape:label="Layer 1"
     inkscape:groupmode="layer"
     id="layer1"
     transform="translate(-2.2730319,-14.040994)">
    <rect
       style="fill:#1a86ff;fill-opacity:1;stroke-width:1.16255"
       id="rect22316"
       width="36.897137"
       height="10.497947"
       x="2.363776"
       y="14.1931"
       ry="2.2709818" />
    <g
       id="g15534"
       transform="matrix(0.60567829,0,0,0.60567829,4.1587877,8.924977)">
      <g
         id="g15525" />
    </g>
    <g
       style="mix-blend-mode:normal;fill:#ffffff"
       id="layer1-3"
       transform="matrix(0.01896688,0,0,0.01896688,7.0916737,11.717174)">
      <g
         style="fill:#ffffff"
         id="g15041"
         transform="matrix(1.293235,0,0,1.293235,-4878.321,-1224.915)">
        <g
           id="g15043"
           style="fill:#ffffff;fill-opacity:1;fill-rule:nonzero;stroke:none;stroke-miterlimit:4"
           transform="matrix(2.438586,0,0,2.438586,3659.952,1113.451)">
          <g
             id="g15045"
             style="fill:#ffffff;fill-opacity:1">
            <path
               inkscape:connector-curvature="0"
               id="path15047"
               style="fill:#ffffff;fill-opacity:1"
               d="M 86.068,0 C 61.466,0 56.851,35.041 70.691,35.041 84.529,35.041 110.671,0 86.068,0 Z" />
            <path
               inkscape:connector-curvature="0"
               id="path15049"
               style="fill:#ffffff;fill-opacity:1"
               d="M 45.217,30.699 C 52.586,31.149 60.671,2.577 46.821,4.374 32.976,6.171 37.845,30.249 45.217,30.699 Z" />
            <path
               inkscape:connector-curvature="0"
               id="path15051"
               style="fill:#ffffff;fill-opacity:1"
               d="M 11.445,48.453 C 16.686,46.146 12.12,23.581 3.208,29.735 -5.7,35.89 6.204,50.759 11.445,48.453 Z" />
            <path
               inkscape:connector-curvature="0"
               id="path15053"
               style="fill:#ffffff;fill-opacity:1"
               d="M 26.212,36.642 C 32.451,35.37 32.793,9.778 21.667,14.369 10.539,18.961 19.978,37.916 26.212,36.642 Z" />
            <path
               inkscape:connector-curvature="0"
               id="path15055"
               style="fill:#ffffff;fill-opacity:1"
               d="m 58.791,93.913 c 1.107,8.454 -6.202,12.629 -13.36,7.179 C 22.644,83.743 83.16,75.088 79.171,51.386 75.86,31.712 15.495,37.769 8.621,68.553 3.968,89.374 27.774,118.26 52.614,118.26 c 12.22,0 26.315,-11.034 28.952,-25.012 C 83.58,82.589 57.867,86.86 58.791,93.913 Z" />
          </g>
        </g>
      </g>
    </g>
    <g
       id="g51711">
      <g
         aria-label="Download on the"
         id="text19419"
         style="font-weight:bold;font-size:1.89808px;line-height:1.25;font-family:Montserrat;-inkscape-font-specification:'Montserrat Bold';fill:#ffffff;stroke-width:0.0474521">
        <path
           d="m 11.668328,17.438737 h 0.603589 q 0.216381,0 0.381514,0.08352 0.167031,0.08162 0.258139,0.231565 0.09301,0.149949 0.09301,0.349247 0,0.199299 -0.09301,0.349247 -0.09111,0.149948 -0.258139,0.233464 -0.165133,0.08162 -0.381514,0.08162 h -0.603589 z m 0.588404,1.076211 q 0.199299,0 0.31698,-0.110088 0.119579,-0.111987 0.119579,-0.301795 0,-0.189808 -0.119579,-0.299897 -0.117681,-0.111986 -0.31698,-0.111986 h -0.280915 v 0.823766 z"
           id="path51094" />
        <path
           d="m 13.701168,18.782578 q -0.161337,0 -0.290406,-0.06643 -0.127171,-0.06833 -0.199298,-0.18791 -0.07213,-0.119579 -0.07213,-0.271425 0,-0.151847 0.07213,-0.271426 0.07213,-0.119579 0.199298,-0.186012 0.129069,-0.06833 0.290406,-0.06833 0.161337,0 0.288508,0.06833 0.127172,0.06643 0.199299,0.186012 0.07213,0.119579 0.07213,0.271426 0,0.151846 -0.07213,0.271425 -0.07213,0.119579 -0.199299,0.18791 -0.127171,0.06643 -0.288508,0.06643 z m 0,-0.242954 q 0.113885,0 0.186012,-0.07592 0.07402,-0.07782 0.07402,-0.20689 0,-0.12907 -0.07402,-0.204993 -0.07213,-0.07782 -0.186012,-0.07782 -0.113885,0 -0.18791,0.07782 -0.07403,0.07592 -0.07403,0.204993 0,0.129069 0.07403,0.20689 0.07402,0.07592 0.18791,0.07592 z"
           id="path51096" />
        <path
           d="m 16.069967,17.746226 -0.370125,1.021167 H 15.41513 l -0.229668,-0.633959 -0.23726,0.633959 H 14.66349 l -0.368228,-1.021167 h 0.279018 l 0.241056,0.690901 0.250547,-0.690901 h 0.250546 l 0.242955,0.690901 0.248648,-0.690901 z"
           id="path51098" />
        <path
           d="m 16.829196,17.731041 q 0.189808,0 0.305591,0.113885 0.117681,0.113885 0.117681,0.337858 v 0.584609 h -0.296101 v -0.539055 q 0,-0.121477 -0.05315,-0.180317 -0.05315,-0.06074 -0.153744,-0.06074 -0.111987,0 -0.17842,0.07023 -0.06643,0.06833 -0.06643,0.204993 v 0.504889 h -0.2961 v -1.021167 h 0.282814 v 0.119579 q 0.05884,-0.06454 0.146152,-0.0987 0.08731,-0.03606 0.191706,-0.03606 z"
           id="path51100" />
        <path
           d="m 17.520097,17.359018 h 0.2961 v 1.408375 h -0.2961 z"
           id="path51102" />
        <path
           d="m 18.577325,18.782578 q -0.161337,0 -0.290406,-0.06643 -0.127172,-0.06833 -0.199299,-0.18791 -0.07213,-0.119579 -0.07213,-0.271425 0,-0.151847 0.07213,-0.271426 0.07213,-0.119579 0.199299,-0.186012 0.129069,-0.06833 0.290406,-0.06833 0.161337,0 0.288508,0.06833 0.127172,0.06643 0.199299,0.186012 0.07213,0.119579 0.07213,0.271426 0,0.151846 -0.07213,0.271425 -0.07213,0.119579 -0.199299,0.18791 -0.127171,0.06643 -0.288508,0.06643 z m 0,-0.242954 q 0.113885,0 0.186012,-0.07592 0.07402,-0.07782 0.07402,-0.20689 0,-0.12907 -0.07402,-0.204993 -0.07213,-0.07782 -0.186012,-0.07782 -0.113885,0 -0.18791,0.07782 -0.07402,0.07592 -0.07402,0.204993 0,0.129069 0.07402,0.20689 0.07402,0.07592 0.18791,0.07592 z"
           id="path51104" />
        <path
           d="m 19.729456,17.731041 q 0.23726,0 0.364432,0.113885 0.127171,0.111987 0.127171,0.339757 v 0.58271 h -0.27712 v -0.127171 q -0.08352,0.142356 -0.311285,0.142356 -0.117681,0 -0.204993,-0.03986 -0.08541,-0.03986 -0.130967,-0.110089 -0.04555,-0.07023 -0.04555,-0.159438 0,-0.142356 0.106293,-0.223974 0.10819,-0.08162 0.332164,-0.08162 h 0.235361 q 0,-0.0968 -0.05884,-0.14805 -0.05884,-0.05315 -0.176521,-0.05315 -0.08162,0 -0.161337,0.02657 -0.07782,0.02468 -0.132866,0.06833 l -0.106292,-0.20689 q 0.08352,-0.05884 0.199298,-0.09111 0.117681,-0.03227 0.241056,-0.03227 z m -0.02278,0.852238 q 0.07592,0 0.134764,-0.03417 0.05884,-0.03606 0.08351,-0.104394 v -0.104395 h -0.203094 q -0.182216,0 -0.182216,0.119579 0,0.05694 0.04366,0.09111 0.04555,0.03227 0.123375,0.03227 z"
           id="path51106" />
        <path
           d="m 21.54022,17.359018 v 1.408375 h -0.282814 v -0.117681 q -0.110089,0.132866 -0.318878,0.132866 -0.144254,0 -0.261935,-0.06453 -0.115783,-0.06454 -0.182215,-0.184114 -0.06643,-0.119579 -0.06643,-0.277119 0,-0.157541 0.06643,-0.27712 0.06643,-0.119579 0.182215,-0.184114 0.117681,-0.06453 0.261935,-0.06453 0.195502,0 0.305591,0.123376 v -0.495399 z m -0.550444,1.180606 q 0.111987,0 0.186012,-0.07592 0.07402,-0.07782 0.07402,-0.20689 0,-0.12907 -0.07402,-0.204993 -0.07403,-0.07782 -0.186012,-0.07782 -0.113884,0 -0.18791,0.07782 -0.07402,0.07592 -0.07402,0.204993 0,0.129069 0.07402,0.20689 0.07403,0.07592 0.18791,0.07592 z"
           id="path51108" />
        <path
           d="m 22.836604,18.782578 q -0.161336,0 -0.290406,-0.06643 -0.127171,-0.06833 -0.199298,-0.18791 -0.07213,-0.119579 -0.07213,-0.271425 0,-0.151847 0.07213,-0.271426 0.07213,-0.119579 0.199298,-0.186012 0.12907,-0.06833 0.290406,-0.06833 0.161337,0 0.288508,0.06833 0.127172,0.06643 0.199299,0.186012 0.07213,0.119579 0.07213,0.271426 0,0.151846 -0.07213,0.271425 -0.07213,0.119579 -0.199299,0.18791 -0.127171,0.06643 -0.288508,0.06643 z m 0,-0.242954 q 0.113885,0 0.186012,-0.07592 0.07403,-0.07782 0.07403,-0.20689 0,-0.12907 -0.07403,-0.204993 -0.07213,-0.07782 -0.186012,-0.07782 -0.113884,0 -0.18791,0.07782 -0.07402,0.07592 -0.07402,0.204993 0,0.129069 0.07402,0.20689 0.07403,0.07592 0.18791,0.07592 z"
           id="path51110" />
        <path
           d="m 24.214608,17.731041 q 0.189808,0 0.305591,0.113885 0.117681,0.113885 0.117681,0.337858 v 0.584609 h -0.2961 v -0.539055 q 0,-0.121477 -0.05315,-0.180317 -0.05315,-0.06074 -0.153744,-0.06074 -0.111987,0 -0.17842,0.07023 -0.06643,0.06833 -0.06643,0.204993 v 0.504889 h -0.296101 v -1.021167 h 0.282814 v 0.119579 q 0.05884,-0.06454 0.146152,-0.0987 0.08731,-0.03606 0.191706,-0.03606 z"
           id="path51112" />
        <path
           d="m 26.101298,18.718043 q -0.04366,0.03227 -0.10819,0.04935 -0.06264,0.01519 -0.132866,0.01519 -0.182216,0 -0.282814,-0.09301 -0.0987,-0.09301 -0.0987,-0.273324 v -0.419475 h -0.157541 v -0.22777 h 0.157541 v -0.248648 h 0.2961 v 0.248648 h 0.254343 v 0.22777 h -0.254343 v 0.415679 q 0,0.06454 0.03227,0.100598 0.03416,0.03417 0.0949,0.03417 0.07023,0 0.119579,-0.03796 z"
           id="path51114" />
        <path
           d="m 26.889,17.731041 q 0.189808,0 0.305591,0.113885 0.117681,0.113885 0.117681,0.337858 v 0.584609 h -0.296101 v -0.539055 q 0,-0.121477 -0.05315,-0.180317 -0.05315,-0.06074 -0.153744,-0.06074 -0.111987,0 -0.17842,0.07023 -0.06643,0.06833 -0.06643,0.204993 v 0.504889 h -0.2961 v -1.408375 h 0.2961 v 0.493501 q 0.05884,-0.05884 0.142356,-0.08921 0.08352,-0.03227 0.182216,-0.03227 z"
           id="path51116" />
        <path
           d="m 28.591575,18.260606 q 0,0.0057 -0.0057,0.07972 h -0.772519 q 0.02088,0.0949 0.0987,0.149948 0.07782,0.05505 0.193605,0.05505 0.07972,0 0.140457,-0.02278 0.06264,-0.02468 0.115783,-0.07592 l 0.157541,0.170827 q -0.144254,0.165133 -0.421374,0.165133 -0.172725,0 -0.305591,-0.06643 -0.132865,-0.06833 -0.204992,-0.18791 -0.07213,-0.119579 -0.07213,-0.271425 0,-0.149949 0.07023,-0.269528 0.07213,-0.121477 0.195502,-0.18791 0.125273,-0.06833 0.279018,-0.06833 0.149948,0 0.271425,0.06453 0.121477,0.06453 0.189808,0.186012 0.07023,0.119579 0.07023,0.279018 z m -0.529564,-0.305591 q -0.100599,0 -0.168929,0.05694 -0.06833,0.05694 -0.08352,0.155643 h 0.502991 q -0.01518,-0.0968 -0.08352,-0.153745 -0.06833,-0.05884 -0.167031,-0.05884 z"
           id="path51118" />
      </g>
      <g
         aria-label="GNOME Extensions"
         id="text22878"
         style="font-weight:bold;font-size:2.58178px;line-height:0.95;font-family:Montserrat;-inkscape-font-specification:'Montserrat Bold';fill:#ffffff;stroke-width:0.0645444">
        <path
           d="m 13.006316,21.103801 h 0.382104 v 0.733226 q -0.147162,0.111016 -0.340795,0.170397 -0.193634,0.05938 -0.389849,0.05938 -0.281414,0 -0.506029,-0.118762 -0.224615,-0.121343 -0.353704,-0.333049 -0.126507,-0.214288 -0.126507,-0.482793 0,-0.268505 0.126507,-0.480211 0.129089,-0.214288 0.356286,-0.33305 0.227196,-0.121344 0.511192,-0.121344 0.237524,0 0.431158,0.08004 0.193633,0.08003 0.325304,0.23236 l -0.268505,0.247851 q -0.193634,-0.203961 -0.467303,-0.203961 -0.172979,0 -0.307231,0.07229 -0.134253,0.07229 -0.209124,0.203961 -0.07487,0.13167 -0.07487,0.302068 0,0.167816 0.07487,0.299486 0.07487,0.131671 0.206542,0.206543 0.134252,0.07229 0.30465,0.07229 0.180725,0 0.325304,-0.07745 z"
           id="path51063" />
        <path
           d="m 15.433189,20.228578 v 1.807246 h -0.343377 l -0.901041,-1.097257 v 1.097257 h -0.413085 v -1.807246 h 0.345959 l 0.898459,1.097256 v -1.097256 z"
           id="path51065" />
        <path
           d="m 16.736984,22.066805 q -0.281414,0 -0.50861,-0.121343 -0.224615,-0.121344 -0.353704,-0.33305 -0.126507,-0.214288 -0.126507,-0.480211 0,-0.265923 0.126507,-0.477629 0.129089,-0.214288 0.353704,-0.335632 0.227196,-0.121344 0.50861,-0.121344 0.281414,0 0.506029,0.121344 0.224615,0.121344 0.353704,0.335632 0.129089,0.211706 0.129089,0.477629 0,0.265923 -0.129089,0.480211 -0.129089,0.211706 -0.353704,0.33305 -0.224615,0.121343 -0.506029,0.121343 z m 0,-0.356285 q 0.160071,0 0.28916,-0.07229 0.129089,-0.07487 0.201379,-0.206543 0.07487,-0.13167 0.07487,-0.299486 0,-0.167816 -0.07487,-0.299487 -0.07229,-0.13167 -0.201379,-0.20396 -0.129089,-0.07487 -0.28916,-0.07487 -0.16007,0 -0.289159,0.07487 -0.129089,0.07229 -0.20396,0.20396 -0.07229,0.131671 -0.07229,0.299487 0,0.167816 0.07229,0.299486 0.07487,0.131671 0.20396,0.206543 0.129089,0.07229 0.289159,0.07229 z"
           id="path51067" />
        <path
           d="m 19.685377,22.035824 -0.0026,-1.084348 -0.531847,0.893296 h -0.18847 l -0.529265,-0.87006 v 1.061112 h -0.39243 v -1.807246 h 0.345958 l 0.676427,1.123074 0.666099,-1.123074 h 0.343377 l 0.0052,1.807246 z"
           id="path51069" />
        <path
           d="m 21.905708,21.700192 v 0.335632 h -1.399325 v -1.807246 h 1.365762 v 0.335631 h -0.950096 v 0.392431 h 0.839079 v 0.325304 h -0.839079 v 0.418248 z"
           id="path51071" />
        <path
           d="m 24.368722,21.700192 v 0.335632 h -1.399324 v -1.807246 h 1.365761 v 0.335631 h -0.950095 v 0.392431 h 0.839079 v 0.325304 h -0.839079 v 0.418248 z"
           id="path51073" />
        <path
           d="m 25.538262,22.035824 -0.30465,-0.425994 -0.314977,0.425994 h -0.438903 l 0.534429,-0.699663 -0.516356,-0.689335 h 0.451811 l 0.294323,0.40534 0.302068,-0.40534 h 0.428576 l -0.516356,0.679008 0.53701,0.70999 z"
           id="path51075" />
        <path
           d="m 27.087329,21.968698 q -0.05938,0.04389 -0.147162,0.06713 -0.0852,0.02065 -0.180724,0.02065 -0.247851,0 -0.384686,-0.126507 -0.134252,-0.126507 -0.134252,-0.371776 v -0.570574 h -0.214288 v -0.309813 h 0.214288 v -0.338214 h 0.402757 v 0.338214 h 0.345959 v 0.309813 h -0.345959 v 0.56541 q 0,0.08778 0.04389,0.136834 0.04647,0.04647 0.129089,0.04647 0.09553,0 0.162652,-0.05163 z"
           id="path51077" />
        <path
           d="m 28.631231,21.346489 q 0,0.0077 -0.0077,0.108434 h -1.050784 q 0.0284,0.129089 0.134252,0.203961 0.105853,0.07487 0.263342,0.07487 0.108435,0 0.191052,-0.03098 0.0852,-0.03356 0.157488,-0.103271 l 0.214288,0.23236 q -0.196215,0.224615 -0.573155,0.224615 -0.234942,0 -0.415667,-0.09036 -0.180724,-0.09294 -0.278832,-0.255596 -0.09811,-0.162653 -0.09811,-0.369195 0,-0.203961 0.09553,-0.366613 0.09811,-0.165234 0.265924,-0.255596 0.170397,-0.09294 0.379521,-0.09294 0.203961,0 0.369195,0.08778 0.165234,0.08778 0.258178,0.253015 0.09553,0.162652 0.09553,0.379522 z m -0.720317,-0.415667 q -0.136834,0 -0.229778,0.07745 -0.09294,0.07745 -0.113599,0.211706 h 0.684172 q -0.02065,-0.13167 -0.113598,-0.209124 -0.09294,-0.08004 -0.227197,-0.08004 z"
           id="path51079" />
        <path
           d="m 29.743975,20.626172 q 0.258177,0 0.415666,0.154907 0.16007,0.154907 0.16007,0.459557 v 0.795188 h -0.402757 v -0.733226 q 0,-0.165234 -0.07229,-0.245269 -0.07229,-0.08262 -0.209124,-0.08262 -0.152325,0 -0.242688,0.09553 -0.09036,0.09294 -0.09036,0.278832 v 0.686754 h -0.402758 v -1.388998 h 0.384686 v 0.162652 q 0.08004,-0.08778 0.198797,-0.134252 0.118762,-0.04905 0.26076,-0.04905 z"
           id="path51081" />
        <path
           d="m 31.151045,22.056478 q -0.17298,0 -0.338214,-0.04131 -0.165234,-0.04389 -0.263341,-0.108435 l 0.134252,-0.28916 q 0.09294,0.05938 0.224615,0.09811 0.131671,0.03615 0.258178,0.03615 0.255596,0 0.255596,-0.126507 0,-0.05938 -0.06971,-0.0852 -0.06971,-0.02582 -0.214287,-0.04389 -0.170398,-0.02582 -0.281414,-0.05938 -0.111017,-0.03356 -0.193634,-0.118762 -0.08003,-0.0852 -0.08003,-0.242687 0,-0.131671 0.07487,-0.232361 0.07745,-0.103271 0.222033,-0.16007 0.147161,-0.0568 0.345958,-0.0568 0.147162,0 0.291741,0.03356 0.147162,0.03098 0.242688,0.08778 l -0.134253,0.286577 q -0.183306,-0.103271 -0.400176,-0.103271 -0.129089,0 -0.193633,0.03615 -0.06454,0.03615 -0.06454,0.09294 0,0.06454 0.06971,0.09036 0.06971,0.02582 0.222033,0.04905 0.170398,0.0284 0.278833,0.06196 0.108434,0.03098 0.188469,0.11618 0.08004,0.0852 0.08004,0.237524 0,0.129089 -0.07745,0.229778 -0.07745,0.10069 -0.227196,0.157489 -0.147162,0.05422 -0.351122,0.05422 z"
           id="path51083" />
        <path
           d="m 32.054663,20.646826 h 0.402757 v 1.388998 h -0.402757 z m 0.201378,-0.193633 q -0.111016,0 -0.180724,-0.06454 -0.06971,-0.06454 -0.06971,-0.16007 0,-0.09553 0.06971,-0.160071 0.06971,-0.06454 0.180724,-0.06454 0.111017,0 0.180725,0.06196 0.06971,0.06196 0.06971,0.154907 0,0.100689 -0.06971,0.167815 -0.06971,0.06454 -0.180725,0.06454 z"
           id="path51085" />
        <path
           d="m 33.492711,22.056478 q -0.219451,0 -0.395012,-0.09036 -0.172979,-0.09294 -0.271087,-0.255596 -0.09811,-0.162653 -0.09811,-0.369195 0,-0.206542 0.09811,-0.369195 0.09811,-0.162652 0.271087,-0.253014 0.175561,-0.09294 0.395012,-0.09294 0.219451,0 0.392431,0.09294 0.172979,0.09036 0.271087,0.253014 0.09811,0.162653 0.09811,0.369195 0,0.206542 -0.09811,0.369195 -0.09811,0.162652 -0.271087,0.255596 -0.17298,0.09036 -0.392431,0.09036 z m 0,-0.330468 q 0.154907,0 0.253015,-0.103271 0.100689,-0.105853 0.100689,-0.281414 0,-0.175561 -0.100689,-0.278832 -0.09811,-0.105853 -0.253015,-0.105853 -0.154907,0 -0.255596,0.105853 -0.100689,0.103271 -0.100689,0.278832 0,0.175561 0.100689,0.281414 0.100689,0.103271 0.255596,0.103271 z"
           id="path51087" />
        <path
           d="m 35.367081,20.626172 q 0.258178,0 0.415666,0.154907 0.16007,0.154907 0.16007,0.459557 v 0.795188 H 35.54006 v -0.733226 q 0,-0.165234 -0.07229,-0.245269 -0.07229,-0.08262 -0.209124,-0.08262 -0.152325,0 -0.242688,0.09553 -0.09036,0.09294 -0.09036,0.278832 v 0.686754 H 34.52284 v -1.388998 h 0.384686 v 0.162652 q 0.08003,-0.08778 0.198797,-0.134252 0.118762,-0.04905 0.26076,-0.04905 z"
           id="path51089" />
        <path
           d="m 36.774151,22.056478 q -0.17298,0 -0.338214,-0.04131 -0.165234,-0.04389 -0.263341,-0.108435 l 0.134252,-0.28916 q 0.09294,0.05938 0.224615,0.09811 0.131671,0.03615 0.258178,0.03615 0.255596,0 0.255596,-0.126507 0,-0.05938 -0.06971,-0.0852 -0.06971,-0.02582 -0.214287,-0.04389 -0.170398,-0.02582 -0.281414,-0.05938 -0.111017,-0.03356 -0.193634,-0.118762 -0.08004,-0.0852 -0.08004,-0.242687 0,-0.131671 0.07487,-0.232361 0.07745,-0.103271 0.222033,-0.16007 0.147161,-0.0568 0.345958,-0.0568 0.147162,0 0.291741,0.03356 0.147162,0.03098 0.242688,0.08778 l -0.134253,0.286577 q -0.183306,-0.103271 -0.400176,-0.103271 -0.129089,0 -0.193633,0.03615 -0.06455,0.03615 -0.06455,0.09294 0,0.06454 0.06971,0.09036 0.06971,0.02582 0.222033,0.04905 0.170398,0.0284 0.278833,0.06196 0.108434,0.03098 0.188469,0.11618 0.08004,0.0852 0.08004,0.237524 0,0.129089 -0.07745,0.229778 -0.07745,0.10069 -0.227196,0.157489 -0.147162,0.05422 -0.351122,0.05422 z"
           id="path51091" />
      </g>
    </g>
  </g>
</svg>
